# xmcd CD database file
#
# Track frame offsets:
#	150
#	10582
#	25252
#	32950
#	45670
#	56047
#	65812
#	74682
#	85327
#	97385
#	109070
#	117990
#	134932
#	146847
#	155180
#
# Disc length: 2216 seconds
#
# Revision: 0
# Processed by: cddbd v1.5.2PL0 Copyright (c) Steve Scherf et al.
# Submitted via: CDex 1.70beta2
#
DISCID=f008a60f
DTITLE=Eumir Deodato - O Som Dos Catedraticos
DYEAR=1998
DGENRE=Jazz
TTITLE0=Ai Que Saudades da Amelia
TTITLE1=Fora de Tempo
TTITLE2=Summer Samba (Samba de Verao)
TTITLE3=Comecou de Brincadeira
TTITLE4=Os Grilos (Crickets Sing for Anamaria)
TTITLE5=Ate de Cavaquinho
TTITLE6=Ainda Mais Lindo
TTITLE7=Gente
TTITLE8=Imenso Amor
TTITLE9=Muito A Vontade
TTITLE10=Feitinha Pro Poeta
TTITLE11=Tristeza (Goodbye Sadness)
TTITLE12=Garota de Ipanema
TTITLE13=Tempinho Bom
TTITLE14=Os Grilos (Crickets Sing for Anamaria)
EXTD=YEAR: 1998
EXTT0=
EXTT1=
EXTT2=
EXTT3=
EXTT4=
EXTT5=
EXTT6=
EXTT7=
EXTT8=
EXTT9=
EXTT10=
EXTT11=
EXTT12=
EXTT13=
EXTT14=
PLAYORDER=
